<svg xmlns="http://www.w3.org/2000/svg" height="584pt" version="1.1" viewBox="-126 1 584 584.937" width="584pt">
<g id="surface1">
<path d="M 322.230469 29.25 L 322.230469 555.75 C 322.199219 566.507812 313.488281 575.21875 302.730469 575.25 L 29.730469 575.25 C 18.976562 575.21875 10.265625 566.507812 10.230469 555.75 L 10.230469 29.25 C 10.265625 18.492188 18.976562 9.78125 29.730469 9.75 L 78.484375 9.75 L 91.058594 39 L 241.40625 39 L 253.984375 9.75 L 302.734375 9.75 C 313.488281 9.78125 322.199219 18.492188 322.230469 29.25 Z M 322.230469 29.25 " style=" stroke:none;fill-rule:nonzero;fill:rgb(91.764706%,20.392157%,54.509804%);fill-opacity:1;" />
<path d="M 322.230469 224.25 L 322.230469 555.75 C 322.199219 566.507812 313.488281 575.21875 302.730469 575.25 L 29.730469 575.25 C 18.976562 575.21875 10.265625 566.507812 10.230469 555.75 L 10.230469 477.75 " style=" stroke:none;fill-rule:nonzero;fill:rgb(0%,42.745098%,94.117647%);fill-opacity:1;" />
<path d="M 241.445312 39 L 253.984375 9.75 L 78.484375 9.75 L 91.019531 39 Z M 241.445312 39 " style=" stroke:none;fill-rule:nonzero;fill:rgb(0%,0%,0%);fill-opacity:1;" />
<path d="M 166.230469 390 C 220.078125 390 263.730469 346.347656 263.730469 292.5 C 263.730469 238.652344 220.078125 195 166.230469 195 C 112.382812 195 68.734375 238.652344 68.734375 292.5 C 68.734375 346.347656 112.382812 390 166.230469 390 Z M 166.230469 292.5 C 155.460938 292.5 146.730469 283.769531 146.730469 273 C 146.730469 262.230469 155.460938 253.5 166.230469 253.5 C 177 253.5 185.730469 262.230469 185.730469 273 C 185.730469 262.230469 177.003906 253.5 166.230469 253.5 C 155.460938 253.5 146.730469 262.230469 146.730469 273 C 146.730469 283.769531 155.460938 292.5 166.230469 292.5 C 177 292.5 185.730469 301.230469 185.730469 312 C 185.730469 322.769531 177.003906 331.5 166.230469 331.5 C 155.460938 331.5 146.730469 322.769531 146.730469 312 C 146.730469 322.769531 155.460938 331.5 166.230469 331.5 C 177 331.5 185.730469 322.769531 185.730469 312 C 185.730469 301.230469 177.003906 292.5 166.230469 292.5 Z M 166.230469 292.5 " style=" stroke:none;fill-rule:nonzero;fill:rgb(100%,96.862745%,83.921569%);fill-opacity:1;" />
<path d="M 302.730469 0 L 29.730469 0 C 13.578125 0 0.480469 13.09375 0.480469 29.25 L 0.480469 555.75 C 0.480469 571.90625 13.578125 585 29.730469 585 L 302.730469 585 C 318.886719 585 331.980469 571.90625 331.980469 555.75 L 331.980469 29.25 C 331.980469 13.09375 318.886719 0 302.730469 0 Z M 239.191406 19.5 L 235.019531 29.25 L 97.445312 29.25 L 93.273438 19.5 Z M 312.480469 555.75 C 312.480469 561.132812 308.117188 565.5 302.730469 565.5 L 29.730469 565.5 C 24.347656 565.5 19.980469 561.132812 19.980469 555.75 L 19.980469 29.25 C 19.980469 23.867188 24.347656 19.5 29.730469 19.5 L 72.058594 19.5 L 82.058594 42.839844 C 83.597656 46.425781 87.121094 48.75 91.019531 48.75 L 241.441406 48.75 C 245.34375 48.75 248.867188 46.425781 250.402344 42.839844 L 260.40625 19.5 L 302.730469 19.5 C 308.117188 19.5 312.480469 23.867188 312.480469 29.25 Z M 312.480469 555.75 " style=" stroke:none;fill-rule:nonzero;fill:rgb(0%,0%,0%);fill-opacity:1;" />
<path d="M 166.230469 263.25 C 171.617188 263.25 175.980469 267.613281 175.980469 273 L 195.480469 273 C 195.429688 260.648438 187.628906 249.660156 175.980469 245.542969 L 175.980469 224.25 L 156.480469 224.25 L 156.480469 245.542969 C 141.28125 250.898438 133.296875 267.5625 138.652344 282.761719 C 142.769531 294.457031 153.832031 302.273438 166.230469 302.25 C 171.617188 302.25 175.980469 306.613281 175.980469 312 C 175.980469 317.382812 171.617188 321.75 166.230469 321.75 C 160.847656 321.75 156.480469 317.382812 156.480469 312 L 136.980469 312 C 137.03125 324.351562 144.835938 335.339844 156.480469 339.457031 L 156.480469 360.75 L 175.980469 360.75 L 175.980469 339.457031 C 191.183594 334.101562 199.164062 317.4375 193.8125 302.238281 C 189.691406 290.542969 178.632812 282.726562 166.230469 282.75 C 160.847656 282.75 156.480469 278.382812 156.480469 273 C 156.480469 267.613281 160.847656 263.25 166.230469 263.25 Z M 166.230469 263.25 " style=" stroke:none;fill-rule:nonzero;fill:rgb(0%,0%,0%);fill-opacity:1;" />
<path d="M 166.230469 185.25 C 107 185.25 58.984375 233.265625 58.984375 292.5 C 58.984375 351.730469 107 399.75 166.230469 399.75 C 225.464844 399.75 273.480469 351.730469 273.480469 292.5 C 273.414062 233.296875 225.433594 185.320312 166.230469 185.25 Z M 166.230469 380.25 C 117.769531 380.25 78.484375 340.960938 78.484375 292.5 C 78.484375 244.039062 117.769531 204.75 166.230469 204.75 C 214.695312 204.75 253.980469 244.039062 253.980469 292.5 C 253.921875 340.9375 214.671875 380.191406 166.230469 380.25 Z M 166.230469 380.25 " style=" stroke:none;fill-rule:nonzero;fill:rgb(0%,0%,0%);fill-opacity:1;" />
<path d="M 146.730469 419.25 L 185.730469 419.25 L 185.730469 438.75 L 146.730469 438.75 Z M 146.730469 419.25 " style=" stroke:none;fill-rule:nonzero;fill:rgb(0%,0%,0%);fill-opacity:1;" />
<path d="M 195.480469 419.25 L 214.980469 419.25 L 214.980469 438.75 L 195.480469 438.75 Z M 195.480469 419.25 " style=" stroke:none;fill-rule:nonzero;fill:rgb(0%,0%,0%);fill-opacity:1;" />
<path d="M 117.484375 419.25 L 136.984375 419.25 L 136.984375 438.75 L 117.484375 438.75 Z M 117.484375 419.25 " style=" stroke:none;fill-rule:nonzero;fill:rgb(0%,0%,0%);fill-opacity:1;" />
<path d="M 146.730469 146.25 L 185.730469 146.25 L 185.730469 165.75 L 146.730469 165.75 Z M 146.730469 146.25 " style=" stroke:none;fill-rule:nonzero;fill:rgb(0%,0%,0%);fill-opacity:1;" />
<path d="M 195.480469 146.25 L 214.980469 146.25 L 214.980469 165.75 L 195.480469 165.75 Z M 195.480469 146.25 " style=" stroke:none;fill-rule:nonzero;fill:rgb(0%,0%,0%);fill-opacity:1;" />
<path d="M 117.484375 146.25 L 136.984375 146.25 L 136.984375 165.75 L 117.484375 165.75 Z M 117.484375 146.25 " style=" stroke:none;fill-rule:nonzero;fill:rgb(0%,0%,0%);fill-opacity:1;" />
<path d="M 253.984375 536.25 L 78.484375 536.25 C 73.097656 536.25 68.734375 540.613281 68.734375 546 C 68.734375 551.382812 73.097656 555.75 78.484375 555.75 L 253.984375 555.75 C 259.367188 555.75 263.734375 551.382812 263.734375 546 C 263.734375 540.613281 259.367188 536.25 253.984375 536.25 Z M 253.984375 536.25 " style=" stroke:none;fill-rule:nonzero;fill:rgb(0%,0%,0%);fill-opacity:1;" />
</g>
</svg>